<?xml version="1.0" encoding="UTF-8"?>
<svg width="93px" height="80px" viewBox="0 0 93 80" version="1.1" xmlns="http://www.w3.org/2000/svg" xmlns:xlink="http://www.w3.org/1999/xlink">
    <!-- Generator: Sketch 48.2 (47327) - http://www.bohemiancoding.com/sketch -->
    <title>icon</title>
    <desc>Created with Sketch.</desc>
    <defs></defs>
    <g id="home-/-landing-v3" stroke="none" stroke-width="1" fill="none" fill-rule="evenodd" transform="translate(-1094.000000, -1315.000000)">
        <g id="services" transform="translate(0.000000, 1059.000000)" fill-rule="nonzero">
            <g id="match" transform="translate(990.000000, 241.000000)">
                <g id="icon" transform="translate(104.000000, 15.000000)">
                    <path d="M92.4358974,41.8715474 C91.4205128,40.0985025 89.0512821,39.4336106 87.1333333,40.5417637 L74.2717949,47.855574 L71,49.7394343 L71,67.2482529 L74.0461538,69.0212978 C74.1589744,69.0212978 74.1589744,69.1321131 74.2717949,69.1321131 L86.9076923,76.3351082 C87.4717949,76.7783694 88.2615385,77 89.0512821,77 C91.1948718,77 92.8871795,75.3377704 92.8871795,73.2322795 L92.8871795,58.3830283 L93,43.7554077 C93,43.0905158 92.8871795,42.425624 92.4358974,41.8715474 Z" id="Shape" fill="#C9C9D5"></path>
                    <path d="M18.0005675,35 C27.9505644,35 36,27.173913 36,17.5 C36,7.82608696 27.9505644,0 18.0005675,0 C8.05057072,0 0.00113509317,7.82608696 0.00113509317,17.5 C-0.110662624,27.173913 8.05057072,35 18.0005675,35 Z M18.0005675,10.326087 C22.1370831,10.326087 25.3792169,13.5869565 25.3792169,17.5 C25.3792169,21.5217391 22.0252854,24.673913 18.0005675,24.673913 C13.9758497,24.673913 10.6219182,21.4130435 10.6219182,17.5 C10.5101205,13.4782609 13.864052,10.326087 18.0005675,10.326087 Z" id="Shape" fill="#9B9BA8"></path>
                    <path d="M62.6020942,36.119403 C59.7434555,37.5746269 56.5549738,38.4701493 53.1465969,38.4701493 C48.9685864,38.4701493 45.0104712,37.238806 41.7120419,35 L29.1780105,35 C25.8795812,37.238806 21.921466,38.4701493 17.7434555,38.4701493 C14.3350785,38.4701493 11.1465969,37.6865672 8.28795812,36.119403 C5.7591623,37.5746269 4,40.4850746 4,43.619403 L4,70.9328358 C4,75.9701493 8.06806283,80 12.9057592,80 L58.0942408,80 C63.0418848,80 67,75.858209 67,70.9328358 L67,43.619403 C66.8900524,40.4850746 65.1308901,37.5746269 62.6020942,36.119403 Z" id="Shape" fill="#C9C9D5"></path>
                    <path d="M54,35 C63.9503106,35 72,27.173913 72,17.5 C72,7.82608696 63.9503106,0 54,0 C44.0496894,0 36,7.82608696 36,17.5 C36,27.173913 44.0496894,35 54,35 Z M54,10.326087 C58.136646,10.326087 61.378882,13.5869565 61.378882,17.5 C61.378882,21.5217391 58.0248447,24.673913 54,24.673913 C49.9751553,24.673913 46.621118,21.4130435 46.621118,17.5 C46.621118,13.4782609 49.863354,10.326087 54,10.326087 Z" id="Shape" fill="#9B9BA8"></path>
                </g>
            </g>
        </g>
    </g>
</svg>