<?xml version="1.0" encoding="UTF-8"?>
<svg width="83px" height="105px" viewBox="0 0 83 105" version="1.1" xmlns="http://www.w3.org/2000/svg" xmlns:xlink="http://www.w3.org/1999/xlink">
    <!-- Generator: Sketch 48.2 (47327) - http://www.bohemiancoding.com/sketch -->
    <title>icon</title>
    <desc>Created with Sketch.</desc>
    <defs></defs>
    <g id="home-/-landing-v3" stroke="none" stroke-width="1" fill="none" fill-rule="evenodd" transform="translate(-678.000000, -1303.000000)">
        <g id="services" transform="translate(0.000000, 1059.000000)">
            <g id="paint" transform="translate(570.000000, 241.000000)">
                <g id="icon" transform="translate(108.000000, 3.000000)">
                    <path d="M50.2366435,43.7499833 L58.9735118,43.7499833 C59.8034922,43.7499833 60.5680535,43.2774982 60.9348823,42.5250593 L67.5881707,28.9449835 C71.9873077,28.3149364 75.2941857,24.3905574 75.9668391,18.7293788 C76.8186928,11.5542787 73.2320777,2.74306599 63.3331164,0.345671734 C62.4549746,0.135656059 61.5507455,0.481327793 61.0352185,1.20764038 C60.5196915,1.94259476 60.5066478,2.91389214 60.9958867,3.67075246 C63.2979987,7.19700609 61.9089454,9.27947732 59.4495064,12.390121 C58.5103603,13.5756545 57.6191748,14.7045138 57.0861893,15.9776711 C56.0595501,18.405814 56.0071746,20.969613 56.9332771,23.1788976 C57.3396384,24.1501949 57.9555015,25.0208054 58.6981895,25.7995716 L50.0660721,38.0058033 L49.5200429,38.7889909 L48.4498578,40.3027116 C47.9824921,40.9721491 47.9168723,41.8471809 48.2969455,42.5688712 C48.6770188,43.2905614 49.4197068,43.7499833 50.2366435,43.7499833 Z M61.1096679,17.6750801 C61.4154924,16.9445471 62.1230627,16.0520307 62.8745803,15.111281 C64.5345411,13.0113252 66.7886925,10.1543082 66.5396582,6.4399448 C70.6373855,9.23988585 72.118146,14.08753 71.6289071,18.2086606 C71.2707071,21.2011327 69.6761655,24.6924172 66.351829,24.6924172 L66.3474142,24.6924172 L62.6211312,23.4542291 C61.85657,22.9204477 61.2800386,22.2598529 60.9567556,21.485508 C60.48939,20.3482078 60.5331365,19.0356601 61.1096679,17.6750801 Z M3.31044176,17.8149565 C2.58099814,17.3730192 1.66352462,17.3993466 0.955753603,17.876253 C0.252397375,18.3618012 -0.110217376,19.2062853 0.0296511803,20.046348 L2.06527046,32.2614224 L12.6457147,23.419461 C12.6459154,23.419461 3.31044176,17.8149565 3.31044176,17.8149565 Z M10.9203347,43.7499833 L24.0737985,43.7499833 C25.2401056,43.7499833 26.1706229,42.8269191 26.2318279,41.6719334 C26.2930329,42.8269191 27.2235501,43.7499833 28.394272,43.7499833 L45.8682093,43.7499833 C47.0738482,43.7499833 48.0525267,42.7742645 48.0525267,41.5624037 L48.0525267,39.3748241 L42.5918335,39.3748241 C41.3904088,39.3748241 40.4075161,38.3991054 40.4075161,37.1872446 C40.4075161,35.9798052 41.3904088,34.999665 42.5918335,34.999665 L48.0525267,34.999665 L48.0525267,30.6247069 L37.131341,30.6247069 C35.9299163,30.6247069 34.9470236,29.6489882 34.9470236,28.4371274 C34.9470236,27.229688 35.9299163,26.2495478 37.131341,26.2495478 L48.0525267,26.2495478 L48.0525267,21.8745897 L42.5918335,21.8745897 C41.3904088,21.8745897 40.4075161,20.8988709 40.4075161,19.6870101 C40.4075161,18.4795707 41.3904088,17.4994306 42.5918335,17.4994306 L48.0525267,17.4994306 L48.0525267,13.1250754 L37.131341,13.1250754 C35.9299163,13.1250754 34.9470236,12.1493566 34.9470236,10.9374958 C34.9470236,9.73005641 35.9299163,8.74991626 37.131341,8.74991626 L48.0525267,8.74991626 L48.0525267,2.18757955 C48.0523261,0.979939172 47.0738482,0 45.8682093,0 L28.394272,0 C27.1928473,0 26.2099546,0.979939172 26.2099546,2.18757955 L26.2099546,41.352589 C26.1575792,40.8276503 25.9478767,40.3419011 25.5852619,39.992009 L15.9004179,26.4032913 L4.17112503,36.1902228 L9.17749626,42.8751524 C9.58345621,43.4262175 10.234437,43.7499833 10.9203347,43.7499833 Z" id="Shape" fill="#9B9BA8" fill-rule="nonzero"></path>
                    <path d="M67.7105808,52.5001005 C76.1460394,52.5001005 83.0002007,59.3687184 83,67.8125544 C83,76.2606108 76.1458387,83.1250084 67.7103801,83.1250084 L65.5260627,83.1250084 L65.5260627,94.0625042 C65.5260627,100.09126 60.6290578,105 54.604877,105 L15.2885682,105 C9.26880213,105 4.36738248,100.09126 4.36738248,94.0625042 L4.36738248,50.3125209 C4.36738248,49.1048806 5.35027515,48.1249414 6.5516999,48.1249414 L63.341946,48.1249414 C64.5477855,48.1249414 65.5262634,49.1050815 65.5262634,50.3125209 L65.5262634,52.5001005 L67.7105808,52.5001005 Z M67.7105808,78.7500502 C73.7347617,78.7500502 78.6317665,73.8413106 78.6317665,67.8125544 C78.6317665,61.7837982 73.7347617,56.8750586 67.7105808,56.8750586 L65.5262634,56.8750586 L65.5262634,78.7500502 L67.7105808,78.7500502 Z" id="Combined-Shape" fill="#C9C9D5"></path>
                </g>
            </g>
        </g>
    </g>
</svg>