<?xml version="1.0" encoding="UTF-8"?>
<svg width="104px" height="89px" viewBox="0 0 104 89" version="1.1" xmlns="http://www.w3.org/2000/svg" xmlns:xlink="http://www.w3.org/1999/xlink">
    <!-- Generator: Sketch 48.2 (47327) - http://www.bohemiancoding.com/sketch -->
    <title>icon</title>
    <desc>Created with Sketch.</desc>
    <defs>
        <path d="M98.2272163,68.9456219 C96.5078635,66.0178025 93.7712977,63.8730877 90.7141717,63.0566421 C88.6355189,62.5009061 86.5239455,62.6054827 84.6868766,63.337031 L79.2975427,54.1147738 C84.0869902,45.5142838 91.1805467,32.7896051 92.0758871,31.2591762 C94.2654391,27.515399 90.6712751,23.3588452 90.5174794,23.1849846 L89.4733313,22 L75.0012391,46.7613963 L60.5279829,22.0019517 L59.4841674,23.1870989 C59.3288753,23.3607969 55.7352101,27.5173507 57.9242633,31.2616157 C58.8187723,32.7904183 65.9138252,45.5152596 70.7036053,54.1167254 L65.3137726,63.33882 C63.4752074,62.6074344 61.3651303,62.5028578 59.2849811,63.0584311 C56.2288528,63.8739009 53.4912893,66.0195915 51.7735991,68.9483868 C48.5458846,74.4673639 49.8472457,81.1562001 54.6729391,83.8564882 C56.0203557,84.6151972 57.5139197,85 59.1117324,85 C59.9892823,85 60.9009167,84.9326676 61.7679919,84.6436589 C66.9411805,82.9218044 69.5907895,78.7849299 70.859895,74.5385996 C70.9142638,74.3559564 73.4666074,64.2391871 74.8918363,62.0349466 C74.8918363,62.0349466 74.9358967,61.9559043 75.0012391,61.8376661 C75.0660827,61.9559043 75.1111406,62.0349466 75.1111406,62.0349466 C76.5362033,64.2391871 79.0882143,74.3559564 79.143082,74.5385996 C80.410026,78.7847672 83.0617964,82.9227802 88.2344862,84.6436589 C89.1010626,84.9326676 90.0125307,85 90.890247,85 C92.4887246,85 93.9812911,84.6151972 95.3302041,83.8564882 C100.153071,81.1532726 101.453102,74.4655748 98.2272163,68.9456219 Z M65.1031141,76.414798 C64.0313659,78.243994 62.3111817,79.6247954 60.5085299,80.1044165 C60.034174,80.2294856 59.5669676,80.2929146 59.1193806,80.2929146 C58.371019,80.2929146 57.6806842,80.1151507 57.069658,79.7724712 C54.5452471,78.3622322 54.0421273,74.551448 55.9520205,71.2837139 C57.0397302,69.4302848 58.7155214,68.0873782 60.5436119,67.6001131 C61.7916017,67.2699568 63.0001865,67.3753466 63.9896332,67.9283177 C66.5118827,69.3431106 67.0115109,73.1509673 65.1031141,76.414798 Z M92.9298273,79.7724712 C92.3176373,80.1161265 91.6289651,80.2938905 90.8801048,80.2938905 C90.4328502,80.2938905 89.96448,80.2294856 89.491288,80.1044165 C87.6881373,79.6259339 85.9679532,78.2449698 84.8967038,76.4157739 C82.9878082,73.1509673 83.4877689,69.344249 86.0086883,67.9318957 C86.9991326,67.3782741 88.2072186,67.2717458 89.4552084,67.6036911 C91.2842965,68.0890046 92.9595889,69.4319112 94.0467998,71.2866414 C95.9568593,74.5533997 95.4547371,78.3622322 92.9298273,79.7724712 Z" id="path-1"></path>
    </defs>
    <g id="home-/-landing-v3" stroke="none" stroke-width="1" fill="none" fill-rule="evenodd" transform="translate(-880.000000, -1684.000000)">
        <g id="services" transform="translate(0.000000, 1059.000000)" fill-rule="nonzero">
            <g id="stereo" transform="translate(780.000000, 612.000000)">
                <g id="icon" transform="translate(100.000000, 13.000000)">
                    <path d="M77.5996417,0 L1.36139722,0 C0.609905956,0 0,0.660782609 0,1.47826087 L0,66.5217391 C0,67.3392174 0.609905956,68 1.36139722,68 L77.5996417,68 C78.351133,68 78.961039,67.3392174 78.961039,66.5217391 L78.961039,1.47826087 C78.961039,0.660782609 78.351133,0 77.5996417,0 Z M14.6887595,65.0434783 L2.9377519,65.0434783 L2.9377519,51.7391304 L14.6887595,51.7391304 L14.6887595,65.0434783 Z M14.6887595,48.7826087 L2.9377519,48.7826087 L2.9377519,35.4782609 L14.6887595,35.4782609 L14.6887595,48.7826087 Z M14.6887595,32.5217391 L2.9377519,32.5217391 L2.9377519,19.2173913 L14.6887595,19.2173913 L14.6887595,32.5217391 Z M14.6887595,16.2608696 L2.9377519,16.2608696 L2.9377519,2.95652174 L14.6887595,2.95652174 L14.6887595,16.2608696 Z M50.5514375,35.2476522 L34.3938021,45.5954783 C34.1543753,45.7477391 33.8796955,45.826087 33.6050157,45.826087 C33.3611823,45.826087 33.1188177,45.7654783 32.8984863,45.6442609 C32.428446,45.384087 32.1361397,44.8873913 32.1361397,44.3478261 L32.1361397,23.6521739 C32.1361397,23.1126087 32.428446,22.615913 32.8984863,22.3557391 C33.3685266,22.0970435 33.9413883,22.1162609 34.3952709,22.4045217 L50.5529064,32.7523478 C50.9744738,33.0243478 51.2315271,33.4944348 51.2315271,34 C51.2315271,34.5055652 50.9744738,34.9756522 50.5514375,35.2476522 Z M76.0232871,65.0434783 L64.2722794,65.0434783 L64.2722794,51.7391304 L76.0232871,51.7391304 L76.0232871,65.0434783 Z M76.0232871,48.7826087 L64.2722794,48.7826087 L64.2722794,35.4782609 L76.0232871,35.4782609 L76.0232871,48.7826087 Z M76.0232871,32.5217391 L64.2722794,32.5217391 L64.2722794,19.2173913 L76.0232871,19.2173913 L76.0232871,32.5217391 Z M76.0232871,16.2608696 L64.2722794,16.2608696 L64.2722794,2.95652174 L76.0232871,2.95652174 L76.0232871,16.2608696 Z" id="Shape" fill="#9B9BA8"></path>
                    <g id="Shape">
                        <use fill="#C9C9D5" fill-rule="evenodd" xlink:href="#path-1"></use>
                        <path stroke="#2E2E33" stroke-width="4" d="M75.0013901,67.2276181 C74.8587648,67.6779937 74.7125165,68.1535878 74.5632234,68.6517025 C74.1529738,70.0204964 73.7410012,71.4863933 73.3390514,72.981553 C73.1213447,73.7913712 72.7805511,75.0965027 72.7761419,75.1113104 C71.1180292,80.6592293 67.7318541,84.7665096 62.4004153,86.5410362 C61.3917206,86.8772488 60.3579921,87 59.1117324,87 C57.1730916,87 55.3412601,86.5280772 53.6963106,85.601824 C47.8311248,82.3198725 46.285104,74.3713619 50.0484114,67.9365926 C52.0270135,64.5629222 55.1936164,62.0801594 58.7689041,61.1261619 C60.6533201,60.6228656 62.5783098,60.5715462 64.3823681,60.9688449 L68.4010627,54.0927906 C61.8432134,42.3177727 56.9188964,33.5036554 56.1976894,32.2710427 C54.8755843,30.0096486 54.9604639,27.5332741 55.9820116,25.1088142 C56.3223321,24.3011245 56.7472953,23.5493381 57.2183846,22.8633203 C57.518835,22.4257933 57.8016357,22.0683204 57.9832969,21.8652109 L60.8572428,18.6021354 L75.0011016,42.7980789 L89.143605,18.6006011 L90.9739029,20.6777727 L92.01549,21.8598566 C92.2110123,22.0808876 92.4839893,22.4263939 92.7827634,22.8617238 C93.2537023,23.5479071 93.6783886,24.2994224 94.0185593,25.1068913 C95.0400052,27.5315145 95.1247581,30.0076906 93.8021719,32.2690973 C93.0847511,33.4954037 88.3416722,41.9862564 81.6000662,54.0909149 L85.618238,60.9668322 C87.421915,60.5695809 89.3473491,60.6209722 91.2302121,61.1243631 C94.805965,62.0793148 97.9713415,64.5603523 99.9518293,67.9328484 L99.9539685,67.9365001 C103.713478,74.3695604 102.169344,82.3158885 96.310673,85.5996695 C94.6594628,86.5284083 92.8288653,87 90.890247,87 C89.6437503,87 88.6101566,86.8772419 87.6031373,86.541394 C82.2703424,84.7672507 78.8815288,80.6570233 77.2276452,75.1140142 C77.2215637,75.0937702 76.8789933,73.7823876 76.6636934,72.9816001 C76.261437,71.4854456 75.8496448,70.0201698 75.4395104,68.6516663 C75.2902275,68.1535512 75.1439958,67.6779726 75.0013901,67.2276181 Z M63.3770439,75.4045096 C64.7715489,73.018888 64.4373125,70.4725845 63.0139299,69.6741708 C62.5068285,69.3907675 61.8324702,69.3279485 61.0587145,69.5326423 C59.757149,69.8795658 58.506297,70.8827624 57.6787233,72.2929203 C56.2828827,74.6811354 56.6187077,77.2296311 58.0479617,78.0280739 C58.3594773,78.20278 58.7132031,78.2929146 59.1193806,78.2929146 C59.3905733,78.2929146 59.6868926,78.252701 59.9942918,78.1716571 C61.268366,77.8326715 62.563178,76.7931338 63.3770438,75.4045097 Z M91.9508235,78.0284668 L91.9545746,78.0263664 C93.3809215,77.2297082 93.7162179,74.6836213 92.3213857,72.2980495 C91.492507,70.8840217 90.2429365,69.8819029 88.941115,69.5364891 C88.1663064,69.3304024 87.4933596,69.3932546 86.9862314,69.6767194 C85.5619072,70.4747017 85.2280703,73.0201073 86.6225268,75.4050638 C87.4359156,76.7939536 88.7305893,77.8333404 90.0023566,78.1708165 C90.314345,78.253278 90.6114353,78.2938905 90.8801048,78.2938905 C91.2861929,78.2938905 91.6380213,78.2040596 91.9508235,78.0284668 Z"></path>
                    </g>
                </g>
            </g>
        </g>
    </g>
</svg>